# Blender v2.93.3 OBJ File: ''
# www.blender.org
mtllib Wooden_Table.mtl
o Table_bot
v 3.148712 5.124038 -6.045604
v 3.148712 5.124036 6.129402
v 3.148712 4.632624 6.129402
v 3.148712 4.632626 -6.045604
v 3.010006 5.141652 -6.045604
v 3.010006 4.614993 -6.045604
v 3.010006 4.614991 6.129402
v 3.010006 5.141650 6.129402
v 3.107376 5.141652 -6.045604
v 3.107376 4.614993 -6.045604
v 3.107376 4.614991 6.129402
v 3.107376 5.141650 6.129402
v 2.578833 0.041694 -5.185063
v 2.578833 5.276371 -5.185062
v 2.578833 5.276371 -6.042986
v 2.578833 0.041694 -6.042987
v 3.009411 0.041694 -5.185063
v 3.009411 0.041694 -5.975032
v 3.009411 5.276371 -5.975031
v 3.009411 5.276371 -5.185062
v 2.968095 0.041694 -6.042987
v 2.968095 5.276371 -6.042986
v 2.967996 5.149467 -6.045287
v -2.966381 5.149467 -6.045287
v -2.966381 4.089702 -6.045287
v 2.967996 4.089702 -6.045287
v 2.967996 5.149467 -6.197283
v 2.967996 4.089702 -6.197283
v -2.966381 4.089702 -6.197283
v -2.966381 5.149467 -6.197283
v 2.967996 1.508790 -5.031937
v -2.966381 1.508790 -5.031937
v -2.966381 0.449026 -5.031937
v 2.967996 0.449026 -5.031937
v 2.967996 1.508790 -5.183913
v 2.967996 0.449026 -5.183913
v -2.966381 0.449026 -5.183913
v -2.966381 1.508790 -5.183913
v -3.019320 0.041694 -5.185063
v -3.019320 5.276371 -5.185062
v -3.019320 5.276371 -5.975031
v -3.019320 0.041694 -5.975032
v -2.588743 0.041694 -5.185063
v -2.588743 0.041694 -6.042987
v -2.588743 5.276371 -6.042986
v -2.588743 5.276371 -5.185062
v -2.978004 0.041694 -6.042987
v -2.978004 5.276371 -6.042986
v -3.019320 0.041692 6.060196
v -3.019320 5.276369 6.060197
v -3.019320 5.276369 5.270228
v -3.019320 0.041692 5.270227
v -2.588743 0.041692 6.128131
v -2.588743 0.041692 5.270227
v -2.588743 5.276369 5.270228
v -2.588743 5.276369 6.128132
v -2.978004 0.041692 6.128131
v -2.978004 5.276369 6.128132
v 2.967996 1.508789 5.267868
v -2.966381 1.508789 5.267868
v -2.966381 0.449024 5.267867
v 2.967996 0.449024 5.267867
v 2.967996 1.508789 5.115872
v 2.967996 0.449024 5.115871
v -2.966381 0.449024 5.115871
v -2.966381 1.508789 5.115872
v 2.578833 0.041692 6.128131
v 2.578833 5.276369 6.128132
v 2.578833 5.276369 5.270228
v 2.578833 0.041692 5.270227
v 3.009411 0.041692 6.060196
v 3.009411 0.041692 5.270227
v 3.009411 5.276369 5.270228
v 3.009411 5.276369 6.060197
v 2.968095 0.041692 6.128131
v 2.968095 5.276369 6.128132
v 2.967996 5.149465 6.281556
v -2.966381 5.149465 6.281556
v -2.966381 4.089700 6.281556
v 2.967996 4.089700 6.281556
v 2.967996 5.149465 6.129580
v 2.967996 4.089700 6.129580
v -2.966381 4.089700 6.129580
v -2.966381 5.149465 6.129580
v -3.021443 5.141652 -6.045604
v -3.021443 5.141650 6.129402
v -3.021443 4.614991 6.129402
v -3.021443 4.614993 -6.045604
v -3.160130 5.124038 -6.045604
v -3.160130 4.632626 -6.045604
v -3.160130 4.632624 6.129402
v -3.160130 5.124036 6.129402
v -3.118813 4.614993 -6.045604
v -3.118813 5.141652 -6.045604
v -3.118813 4.614991 6.129402
v -3.118813 5.141650 6.129402
v 0.177587 2.014563 -5.617090
v 0.177587 2.014562 5.789965
v 0.177587 0.972410 5.789964
v 0.177587 0.972412 -5.617090
v -0.175972 2.014563 -5.617090
v -0.175972 0.972412 -5.617090
v -0.175972 0.972410 5.789964
v -0.175972 2.014562 5.789965
v 0.136251 2.032175 5.722030
v 0.136251 2.032177 -5.549154
v -0.134636 2.032177 -5.549154
v -0.134636 2.032175 5.722030
v 1.894862 5.275437 6.673159
v 1.894862 5.275439 -6.747268
v 3.176283 5.275439 -6.747268
v 3.176283 5.275437 6.673159
v 1.894862 5.544400 6.635095
v 3.154048 5.544400 6.635095
v 3.154048 5.544402 -6.709204
v 1.894862 5.544402 -6.709204
v 3.176283 5.502885 6.673159
v 1.894862 5.502885 6.673159
v 3.176283 5.502887 -6.747268
v 1.894862 5.502887 -6.747268
v 0.608740 5.275437 6.673159
v 0.608740 5.275439 -6.747268
v 1.890141 5.275439 -6.747268
v 1.890141 5.275437 6.673159
v 0.608740 5.544400 6.635095
v 1.890141 5.544400 6.635095
v 1.890141 5.544402 -6.709204
v 0.608740 5.544402 -6.709204
v 1.890141 5.502885 6.673159
v 0.608740 5.502885 6.673159
v 1.890141 5.502887 -6.747268
v 0.608740 5.502887 -6.747268
v -0.677362 5.275437 6.673159
v -0.677362 5.275439 -6.747268
v 0.604059 5.275439 -6.747268
v 0.604059 5.275437 6.673159
v -0.677362 5.544400 6.635095
v 0.604059 5.544400 6.635095
v 0.604059 5.544402 -6.709204
v -0.677362 5.544402 -6.709204
v 0.604059 5.502885 6.673159
v -0.677362 5.502885 6.673159
v 0.604059 5.502887 -6.747268
v -0.677362 5.502887 -6.747268
v -1.961817 5.275437 6.673159
v -1.961817 5.275439 -6.747268
v -0.680396 5.275439 -6.747268
v -0.680396 5.275437 6.673159
v -1.961817 5.544400 6.635095
v -0.680396 5.544400 6.635095
v -0.680396 5.544402 -6.709204
v -1.961817 5.544402 -6.709204
v -0.680396 5.502885 6.673159
v -1.961817 5.502885 6.673159
v -0.680396 5.502887 -6.747268
v -1.961817 5.502887 -6.747268
v -3.247007 5.275437 6.673159
v -3.247007 5.275439 -6.747268
v -1.965606 5.275439 -6.747268
v -1.965606 5.275437 6.673159
v -3.224792 5.544400 6.635095
v -1.965606 5.544400 6.635095
v -1.965606 5.544402 -6.709204
v -3.224792 5.544402 -6.709204
v -1.965606 5.502885 6.673159
v -3.247007 5.502885 6.673159
v -1.965606 5.502887 -6.747268
v -3.247007 5.502887 -6.747268
vt 0.000500 0.762100
vt 0.388200 0.762100
vt 0.388200 0.822400
vt 0.000500 0.822400
vt 0.388200 0.684600
vt 0.388200 0.749200
vt 0.000500 0.749200
vt 0.000500 0.684600
vt 0.753000 0.331000
vt 0.755100 0.328800
vt 0.815500 0.328800
vt 0.817600 0.331000
vt 0.817600 0.336100
vt 0.753000 0.336100
vt 0.000500 0.825900
vt 0.388200 0.825900
vt 0.388200 0.831000
vt 0.000500 0.831000
vt 0.748400 0.007200
vt 0.750600 0.005100
vt 0.810900 0.005100
vt 0.813100 0.007200
vt 0.813100 0.012300
vt 0.748400 0.012300
vt 0.000500 0.753000
vt 0.388200 0.753000
vt 0.388200 0.758100
vt 0.000500 0.758100
vt 0.078000 0.679600
vt 0.078000 0.037000
vt 0.105300 0.037000
vt 0.105300 0.679600
vt 0.303800 0.679600
vt 0.278700 0.679600
vt 0.278700 0.037000
vt 0.303800 0.037000
vt 0.876100 0.543100
vt 0.876100 0.515800
vt 0.896500 0.515800
vt 0.898600 0.518000
vt 0.898600 0.543100
vt 0.219400 0.679600
vt 0.219400 0.037000
vt 0.239800 0.037000
vt 0.239800 0.679600
vt 0.725600 0.392400
vt 0.698200 0.392400
vt 0.698200 0.369900
vt 0.723400 0.369900
vt 0.725600 0.372100
vt 0.192000 0.679600
vt 0.192000 0.037000
vt 0.214600 0.037000
vt 0.214600 0.679600
vt 0.739900 0.664200
vt 0.429200 0.664200
vt 0.429200 0.534100
vt 0.739900 0.534100
vt 0.739900 0.401800
vt 0.739900 0.531900
vt 0.429200 0.531900
vt 0.429200 0.401800
vt 0.392700 0.848700
vt 0.522800 0.848700
vt 0.522800 0.853600
vt 0.392700 0.853600
vt 0.880900 0.014200
vt 0.880900 0.324900
vt 0.876100 0.324900
vt 0.876100 0.014200
vt 0.664200 0.853600
vt 0.534100 0.853600
vt 0.534100 0.848700
vt 0.664200 0.848700
vt 0.912600 0.324900
vt 0.912600 0.014200
vt 0.917400 0.014200
vt 0.917400 0.324900
vt 0.978800 0.675400
vt 0.978800 0.986200
vt 0.848700 0.986200
vt 0.848700 0.675400
vt 0.743800 0.338000
vt 0.874000 0.338000
vt 0.874000 0.648700
vt 0.743800 0.648700
vt 0.880900 0.338000
vt 0.880900 0.468100
vt 0.876100 0.468100
vt 0.876100 0.338000
vt 0.899200 0.014200
vt 0.899200 0.324900
vt 0.894300 0.324900
vt 0.894300 0.014200
vt 0.707400 0.956000
vt 0.707400 0.825900
vt 0.712200 0.825900
vt 0.712200 0.956000
vt 0.885200 0.324900
vt 0.885200 0.014200
vt 0.890100 0.014200
vt 0.890100 0.324900
vt 0.392700 0.679600
vt 0.392700 0.037000
vt 0.417900 0.037000
vt 0.417900 0.679600
vt 0.388100 0.679600
vt 0.360800 0.679600
vt 0.360800 0.037000
vt 0.388100 0.037000
vt 0.885200 0.461100
vt 0.885200 0.435900
vt 0.887400 0.433700
vt 0.907800 0.433700
vt 0.907800 0.461100
vt 0.055200 0.679600
vt 0.055200 0.037000
vt 0.075600 0.037000
vt 0.075600 0.679600
vt 0.684500 0.025400
vt 0.682400 0.027600
vt 0.657200 0.027600
vt 0.657200 0.005100
vt 0.684500 0.005100
vt 0.000500 0.675100
vt 0.000500 0.032400
vt 0.023000 0.032400
vt 0.023000 0.675100
vt 0.112100 0.679600
vt 0.112100 0.037000
vt 0.137300 0.037000
vt 0.137300 0.679600
vt 0.005100 0.027800
vt 0.005100 0.000500
vt 0.647700 0.000500
vt 0.647700 0.027800
vt 0.887400 0.388100
vt 0.885200 0.385900
vt 0.885200 0.360800
vt 0.907800 0.360800
vt 0.907800 0.388100
vt 0.027900 0.679600
vt 0.027900 0.037000
vt 0.050400 0.037000
vt 0.050400 0.679600
vt 0.921700 0.351400
vt 0.896500 0.351400
vt 0.894300 0.349200
vt 0.894300 0.328800
vt 0.921700 0.328800
vt 0.141900 0.679600
vt 0.141900 0.037000
vt 0.162300 0.037000
vt 0.162300 0.679600
vt 0.864800 0.014200
vt 0.864800 0.324900
vt 0.734700 0.324900
vt 0.734700 0.014200
vt 0.716500 0.675400
vt 0.846600 0.675400
vt 0.846600 0.986200
vt 0.716500 0.986200
vt 0.392700 0.990100
vt 0.522800 0.990100
vt 0.522800 0.994900
vt 0.392700 0.994900
vt 0.871800 0.014200
vt 0.871800 0.324900
vt 0.867000 0.324900
vt 0.867000 0.014200
vt 0.664200 0.994900
vt 0.534100 0.994900
vt 0.534100 0.990100
vt 0.664200 0.990100
vt 0.921700 0.324900
vt 0.921700 0.014200
vt 0.926500 0.014200
vt 0.926500 0.324900
vt 0.246800 0.679600
vt 0.246800 0.037000
vt 0.274100 0.037000
vt 0.274100 0.679600
vt 0.189800 0.679600
vt 0.164700 0.679600
vt 0.164700 0.037000
vt 0.189800 0.037000
vt 0.885200 0.424600
vt 0.885200 0.397300
vt 0.907800 0.397300
vt 0.907800 0.422400
vt 0.905600 0.424600
vt 0.306000 0.679600
vt 0.306000 0.037000
vt 0.328600 0.037000
vt 0.328600 0.679600
vt 0.876100 0.506700
vt 0.876100 0.479300
vt 0.896500 0.479300
vt 0.898600 0.481500
vt 0.898600 0.506700
vt 0.333400 0.679600
vt 0.333400 0.037000
vt 0.353800 0.037000
vt 0.353800 0.679600
vt 0.392700 0.857900
vt 0.703400 0.857900
vt 0.703400 0.988000
vt 0.392700 0.988000
vt 0.392700 0.846600
vt 0.392700 0.716500
vt 0.703400 0.716500
vt 0.703400 0.846600
vt 0.556900 0.684600
vt 0.687000 0.684600
vt 0.687000 0.689400
vt 0.556900 0.689400
vt 0.908300 0.014200
vt 0.908300 0.324900
vt 0.903500 0.324900
vt 0.903500 0.014200
vt 0.707400 0.814700
vt 0.707400 0.684600
vt 0.712200 0.684600
vt 0.712200 0.814700
vt 0.429200 0.666300
vt 0.739900 0.666300
vt 0.739900 0.671200
vt 0.429200 0.671200
vt 0.000500 0.926300
vt 0.388200 0.926300
vt 0.388200 0.990900
vt 0.000500 0.990900
vt 0.388200 0.844200
vt 0.388200 0.904500
vt 0.000500 0.904500
vt 0.000500 0.844200
vt 0.753000 0.652600
vt 0.817600 0.652600
vt 0.817600 0.657700
vt 0.815500 0.659900
vt 0.755100 0.659900
vt 0.753000 0.657700
vt 0.000500 0.917100
vt 0.388200 0.917100
vt 0.388200 0.922200
vt 0.000500 0.922200
vt 0.753000 0.661800
vt 0.817600 0.661800
vt 0.817600 0.666900
vt 0.815500 0.669000
vt 0.755100 0.669000
vt 0.753000 0.666900
vt 0.000500 0.908000
vt 0.388200 0.908000
vt 0.388200 0.913100
vt 0.000500 0.913100
vt 0.241900 0.679600
vt 0.241900 0.037000
vt 0.420000 0.037000
vt 0.420000 0.679600
vt 0.109900 0.679600
vt 0.109900 0.037000
vt 0.356000 0.679600
vt 0.356000 0.037000
vt 0.388200 0.839600
vt 0.388200 0.842700
vt 0.000500 0.842700
vt 0.000500 0.839600
vt 0.388200 0.835100
vt 0.388200 0.838100
vt 0.000500 0.838100
vt 0.000500 0.835100
vt 0.000500 0.924400
vt 0.388200 0.924400
vt 0.000500 0.915300
vt 0.388200 0.915300
vt 0.556900 0.400300
vt 0.556900 0.037000
vt 0.684800 0.037000
vt 0.684800 0.400300
vt 0.552600 0.400300
vt 0.424600 0.400300
vt 0.424600 0.037000
vt 0.552600 0.037000
vt 0.999500 0.857900
vt 0.999500 0.985800
vt 0.981000 0.985800
vt 0.981000 0.857900
vt 0.712200 0.005100
vt 0.712200 0.368300
vt 0.693700 0.368300
vt 0.693700 0.005100
vt 0.424600 0.684600
vt 0.552600 0.684600
vt 0.552600 0.703100
vt 0.424600 0.703100
vt 0.718600 0.366200
vt 0.718600 0.007200
vt 0.732800 0.007200
vt 0.732800 0.366200
vt 0.692200 0.368300
vt 0.689100 0.366200
vt 0.689100 0.007200
vt 0.692200 0.005100
vt 0.000500 0.997700
vt 0.002700 0.994700
vt 0.361600 0.994700
vt 0.363800 0.997700
vt 0.735000 0.005100
vt 0.716500 0.005100
vt 0.554700 0.686700
vt 0.554700 0.700900
vt 0.838800 0.991500
vt 0.838800 0.469400
vt 0.888700 0.469400
vt 0.888700 0.991500
vt 0.541500 0.021300
vt 0.642500 0.021300
vt 0.642500 0.976000
vt 0.541500 0.976000
vt 0.541500 0.001000
vt 0.644300 0.001000
vt 0.644300 0.017200
vt 0.541500 0.017200
vt 0.664500 0.018500
vt 0.664500 0.978700
vt 0.646200 0.978700
vt 0.646200 0.018500
vt 0.644300 0.996300
vt 0.541500 0.996300
vt 0.541500 0.980000
vt 0.644300 0.980000
vt 0.520000 0.978700
vt 0.520000 0.018500
vt 0.538200 0.018500
vt 0.538200 0.978700
vt 0.838000 0.463200
vt 0.838000 0.011500
vt 0.881100 0.011500
vt 0.881100 0.463200
vt 0.496900 0.979000
vt 0.389500 0.979000
vt 0.389500 0.021500
vt 0.496900 0.021500
vt 0.496900 0.999400
vt 0.389500 0.999400
vt 0.389500 0.983000
vt 0.496900 0.983000
vt 0.367000 0.981700
vt 0.367000 0.018800
vt 0.386000 0.018800
vt 0.386000 0.981700
vt 0.389500 0.001200
vt 0.496900 0.001200
vt 0.496900 0.017500
vt 0.389500 0.017500
vt 0.519400 0.018800
vt 0.519400 0.981700
vt 0.500400 0.981700
vt 0.500400 0.018800
vt 0.941100 0.991500
vt 0.941100 0.469400
vt 0.990900 0.469400
vt 0.990900 0.991500
vt 0.339900 0.979100
vt 0.212800 0.979100
vt 0.212800 0.021500
vt 0.339900 0.021500
vt 0.339900 0.999400
vt 0.212800 0.999400
vt 0.212800 0.983100
vt 0.339900 0.983100
vt 0.186200 0.981800
vt 0.186200 0.018800
vt 0.208700 0.018800
vt 0.208700 0.981800
vt 0.212800 0.001200
vt 0.339900 0.001200
vt 0.339900 0.017500
vt 0.212800 0.017500
vt 0.366600 0.018800
vt 0.366600 0.981800
vt 0.344000 0.981800
vt 0.344000 0.018800
vt 0.890000 0.991500
vt 0.890000 0.469400
vt 0.939800 0.469400
vt 0.939800 0.991500
vt 0.158300 0.978900
vt 0.027700 0.978900
vt 0.027700 0.022200
vt 0.158300 0.022200
vt 0.158300 0.999300
vt 0.027700 0.999300
vt 0.027700 0.983000
vt 0.158300 0.983000
vt 0.000300 0.981700
vt 0.000300 0.019400
vt 0.023500 0.019400
vt 0.023500 0.981700
vt 0.027700 0.001800
vt 0.158300 0.001800
vt 0.158300 0.018100
vt 0.027700 0.018100
vt 0.185700 0.019400
vt 0.185700 0.981700
vt 0.162500 0.981700
vt 0.162500 0.019400
vt 0.882200 0.463200
vt 0.882200 0.011500
vt 0.925300 0.011500
vt 0.925300 0.463200
vt 0.803600 0.972700
vt 0.689300 0.972700
vt 0.689300 0.021400
vt 0.803600 0.021400
vt 0.805700 0.992900
vt 0.689300 0.992900
vt 0.689300 0.976700
vt 0.805700 0.976700
vt 0.664900 0.975400
vt 0.664900 0.018700
vt 0.685600 0.018700
vt 0.685600 0.975400
vt 0.689300 0.001200
vt 0.805700 0.001200
vt 0.805700 0.017400
vt 0.689300 0.017400
vt 0.828600 0.018700
vt 0.828600 0.975400
vt 0.807900 0.975400
vt 0.807900 0.018700
vn 0.7173 0.2971 -0.6303
vn 0.7173 0.2971 0.6303
vn 0.7173 -0.2971 0.6303
vn 0.7173 -0.2971 -0.6303
vn -0.5774 0.5774 -0.5774
vn -0.5774 -0.5774 -0.5774
vn -0.5774 -0.5773 0.5773
vn -0.5774 0.5773 0.5773
vn 0.2971 0.7173 -0.6303
vn 0.2971 -0.7173 -0.6303
vn 0.2972 -0.7173 0.6302
vn 0.2971 0.7173 0.6303
vn -0.5774 -0.5774 0.5774
vn -0.5774 0.5774 0.5774
vn 0.5774 -0.5774 0.5774
vn 0.7173 -0.6302 -0.2972
vn 0.7173 0.6303 -0.2971
vn 0.5774 0.5774 0.5774
vn 0.2971 -0.6303 -0.7173
vn 0.2972 0.6302 -0.7173
vn 0.5774 0.5774 -0.5774
vn 0.5774 -0.5774 -0.5774
vn -0.7173 0.6303 -0.2971
vn -0.7173 -0.6303 -0.2971
vn -0.2971 -0.6303 -0.7173
vn -0.2971 0.6303 -0.7173
vn -0.7173 -0.6303 0.2971
vn -0.7173 0.6303 0.2971
vn -0.2971 -0.6303 0.7173
vn -0.2971 0.6303 0.7173
vn 0.7173 -0.6302 0.2972
vn 0.7173 0.6303 0.2971
vn 0.2971 -0.6303 0.7173
vn 0.2972 0.6302 0.7173
vn 0.5774 0.5773 0.5773
vn 0.5774 -0.5773 0.5773
vn -0.7173 0.2971 -0.6303
vn -0.7173 -0.2971 -0.6303
vn -0.7173 -0.2971 0.6303
vn -0.7173 0.2971 0.6303
vn -0.2971 -0.7173 -0.6303
vn -0.2971 0.7173 -0.6303
vn -0.2971 -0.7173 0.6303
vn -0.2971 0.7173 0.6303
vn 0.6507 0.3914 -0.6507
vn 0.6507 0.3914 0.6507
vn -0.6507 0.3914 -0.6507
vn -0.6507 0.3914 0.6507
vn 0.3002 0.9054 0.3002
vn 0.3002 0.9054 -0.3002
vn -0.3002 0.9054 -0.3002
vn -0.3002 0.9054 0.3002
vn -0.6303 0.7173 0.2971
vn -0.6302 0.7173 -0.2971
vn -0.6303 0.2971 0.7173
vn -0.6303 0.2971 -0.7173
vn 0.6302 0.7173 0.2971
vn 0.6303 0.7173 -0.2971
vn 0.6303 0.2971 0.7173
vn 0.6303 0.2971 -0.7173
usemtl Bot
s 1
f 1/1/1 2/2/2 3/3/3 4/4/4
f 5/5/5 6/6/6 7/7/7 8/8/8
f 9/9/9 1/10/1 4/11/4 10/12/10 6/13/6 5/14/5
f 10/15/10 11/16/11 7/17/7 6/18/6
f 11/19/11 3/20/3 2/21/2 12/22/12 8/23/8 7/24/7
f 12/25/12 9/26/9 5/27/5 8/28/8
f 13/29/13 14/30/14 15/31/5 16/32/6
f 17/33/15 18/34/16 19/35/17 20/36/18
f 13/37/13 16/38/6 21/39/19 18/40/16 17/41/15
f 16/42/6 15/43/5 22/44/20 21/45/19
f 15/46/5 14/47/14 20/48/18 19/49/17 22/50/20
f 14/51/14 13/52/13 17/53/15 20/54/18
f 23/55/18 24/56/14 25/57/13 26/58/15
f 27/59/21 28/60/22 29/61/6 30/62/5
f 23/63/18 26/64/15 28/65/22 27/66/21
f 26/67/15 25/68/13 29/69/6 28/70/22
f 25/71/13 24/72/14 30/73/5 29/74/6
f 24/75/14 23/76/18 27/77/21 30/78/5
f 31/79/18 32/80/14 33/81/13 34/82/15
f 35/83/21 36/84/22 37/85/6 38/86/5
f 31/87/18 34/88/15 36/89/22 35/90/21
f 34/91/15 33/92/13 37/93/6 36/94/22
f 33/95/13 32/96/14 38/97/5 37/98/6
f 32/99/14 31/100/18 35/101/21 38/102/5
f 39/103/13 40/104/14 41/105/23 42/106/24
f 43/107/15 44/108/22 45/109/21 46/110/18
f 39/111/13 42/112/24 47/113/25 44/114/22 43/115/15
f 47/116/25 48/117/26 45/118/21 44/119/22
f 48/120/26 41/121/23 40/122/14 46/123/18 45/124/21
f 40/125/14 39/126/13 43/127/15 46/128/18
f 49/129/27 50/130/28 51/131/5 52/132/6
f 53/133/15 54/134/22 55/135/21 56/136/18
f 57/137/29 49/138/27 52/139/6 54/140/22 53/141/15
f 52/142/6 51/143/5 55/144/21 54/145/22
f 51/146/5 50/147/28 58/148/30 56/149/18 55/150/21
f 58/151/30 57/152/29 53/153/15 56/154/18
f 59/155/18 60/156/14 61/157/13 62/158/15
f 63/159/21 64/160/22 65/161/6 66/162/5
f 59/163/18 62/164/15 64/165/22 63/166/21
f 62/167/15 61/168/13 65/169/6 64/170/22
f 61/171/13 60/172/14 66/173/5 65/174/6
f 60/175/14 59/176/18 63/177/21 66/178/5
f 67/179/13 68/180/14 69/181/5 70/182/6
f 71/183/31 72/184/22 73/185/21 74/186/32
f 67/187/13 70/188/6 72/189/22 71/190/31 75/191/33
f 70/192/6 69/193/5 73/194/21 72/195/22
f 69/196/5 68/197/14 76/198/34 74/199/32 73/200/21
f 68/201/14 67/202/13 75/203/33 76/204/34
f 77/205/18 78/206/14 79/207/13 80/208/15
f 81/209/21 82/210/22 83/211/6 84/212/5
f 77/213/18 80/214/15 82/215/22 81/216/21
f 80/217/15 79/218/13 83/219/6 82/220/22
f 79/221/13 78/222/14 84/223/5 83/224/6
f 78/225/14 77/226/18 81/227/21 84/228/5
f 85/229/21 86/230/35 87/231/36 88/232/22
f 89/233/37 90/234/38 91/235/39 92/236/40
f 85/237/21 88/238/22 93/239/41 90/240/38 89/241/37 94/242/42
f 88/243/22 87/244/36 95/245/43 93/246/41
f 87/247/36 86/248/35 96/249/44 92/250/40 91/251/39 95/252/43
f 86/253/35 85/254/21 94/255/42 96/256/44
f 18/257/16 21/45/19 22/44/20 19/258/17
f 41/105/23 48/259/26 47/260/25 42/106/24
f 49/129/27 57/261/29 58/262/30 50/130/28
f 74/263/32 76/204/34 75/203/33 71/264/31
f 1/265/1 9/266/9 12/267/12 2/268/2
f 3/269/3 11/270/11 10/271/10 4/272/4
f 90/273/38 93/246/41 95/245/43 91/274/39
f 92/275/40 96/256/44 94/255/42 89/276/37
f 97/277/45 98/278/46 99/279/15 100/280/22
f 101/281/47 102/282/6 103/283/13 104/284/48
f 97/285/45 100/286/22 102/287/6 101/288/47
f 100/289/22 99/290/15 103/291/13 102/292/6
f 99/293/15 98/294/46 104/295/48 103/296/13
f 105/297/49 106/298/50 107/299/51 108/300/52
f 97/301/45 106/302/50 105/303/49 98/304/46
f 104/305/48 108/306/52 107/307/51 101/308/47
f 101/309/47 107/299/51 106/298/50 97/310/45
f 98/294/46 105/311/49 108/312/52 104/295/48
usemtl Top
f 109/313/13 110/314/6 111/315/22 112/316/15
f 113/317/53 114/318/49 115/319/50 116/320/54
f 109/321/13 112/322/15 117/323/46 118/324/55
f 112/325/15 111/326/22 119/327/45 117/328/46
f 111/329/22 110/330/6 120/331/56 119/332/45
f 110/333/6 109/334/13 118/335/55 113/317/53 116/320/54 120/336/56
f 121/337/13 122/338/6 123/339/22 124/340/15
f 125/341/53 126/342/57 127/343/58 128/344/54
f 121/345/13 124/346/15 129/347/59 130/348/55
f 124/349/15 123/350/22 131/351/60 127/343/58 126/342/57 129/352/59
f 123/353/22 122/354/6 132/355/56 131/356/60
f 122/357/6 121/358/13 130/359/55 125/341/53 128/344/54 132/360/56
f 133/361/13 134/362/6 135/363/22 136/364/15
f 137/365/53 138/366/57 139/367/58 140/368/54
f 133/369/13 136/370/15 141/371/59 142/372/55
f 136/373/15 135/374/22 143/375/60 139/367/58 138/366/57 141/376/59
f 135/377/22 134/378/6 144/379/56 143/380/60
f 134/381/6 133/382/13 142/383/55 137/365/53 140/368/54 144/384/56
f 145/385/13 146/386/6 147/387/22 148/388/15
f 149/389/53 150/390/57 151/391/58 152/392/54
f 145/393/13 148/394/15 153/395/59 154/396/55
f 148/397/15 147/398/22 155/399/60 151/391/58 150/390/57 153/400/59
f 147/401/22 146/402/6 156/403/56 155/404/60
f 146/405/6 145/406/13 154/407/55 149/389/53 152/392/54 156/408/56
f 157/409/13 158/410/6 159/411/22 160/412/15
f 161/413/52 162/414/57 163/415/58 164/416/51
f 157/417/13 160/418/15 165/419/59 166/420/48
f 160/421/15 159/422/22 167/423/60 163/415/58 162/414/57 165/424/59
f 159/425/22 158/426/6 168/427/47 167/428/60
f 158/429/6 157/430/13 166/431/48 168/432/47
f 113/317/53 118/324/55 117/323/46 114/318/49
f 114/318/49 117/328/46 119/327/45 115/319/50
f 115/319/50 119/332/45 120/331/56 116/320/54
f 125/341/53 130/348/55 129/347/59 126/342/57
f 127/343/58 131/356/60 132/355/56 128/344/54
f 137/365/53 142/372/55 141/371/59 138/366/57
f 139/367/58 143/380/60 144/379/56 140/368/54
f 149/389/53 154/396/55 153/395/59 150/390/57
f 151/391/58 155/404/60 156/403/56 152/392/54
f 161/413/52 166/420/48 165/419/59 162/414/57
f 163/415/58 167/428/60 168/427/47 164/416/51
f 164/416/51 168/432/47 166/431/48 161/413/52
