{
  "accessors": [
    {
      "bufferView": 2,
      "componentType": 5126,
      "count": 2805,
      "max": [
        6.236147403717041,
        2.7369513511657715,
        0.8865089416503906
      ],
      "min": [
        -6.236147403717041,
        -2.7369513511657715,
        -0.8336591720581055
      ],
      "type": "VEC3"
    },
    {
      "bufferView": 2,
      "byteOffset": 33660,
      "componentType": 5126,
      "count": 2805,
      "max": [
        1.0,
        1.0,
        1.0
      ],
      "min": [
        -1.0,
        -1.0,
        -1.0
      ],
      "type": "VEC3"
    },
    {
      "bufferView": 3,
      "componentType": 5126,
      "count": 2805,
      "max": [
        1.0,
        1.0,
        1.0,
        1.0
      ],
      "min": [
        -0.9986491203308105,
        -1.0,
        -1.0,
        -1.0
      ],
      "type": "VEC4"
    },
    {
      "bufferView": 1,
      "componentType": 5126,
      "count": 2805,
      "max": [
        0.9901108741760254,
        0.9815449714660645
      ],
      "min": [
        0.014860020019114017,
        0.009578108787536621
      ],
      "type": "VEC2"
    },
    {
      "bufferView": 1,
      "byteOffset": 22440,
      "componentType": 5126,
      "count": 2805,
      "max": [
        0.9901108741760254,
        0.9815449714660645
      ],
      "min": [
        0.014860020019114017,
        0.009578108787536621
      ],
      "type": "VEC2"
    },
    {
      "bufferView": 1,
      "byteOffset": 44880,
      "componentType": 5126,
      "count": 2805,
      "max": [
        0.9901108741760254,
        0.9815449714660645
      ],
      "min": [
        0.014860020019114017,
        0.009578108787536621
      ],
      "type": "VEC2"
    },
    {
      "bufferView": 0,
      "componentType": 5125,
      "count": 13548,
      "type": "SCALAR"
    },
    {
      "bufferView": 2,
      "byteOffset": 67320,
      "componentType": 5126,
      "count": 781,
      "max": [
        1.0500001907348633,
        1.0499999523162842,
        0.35727936029434204
      ],
      "min": [
        -1.0500001907348633,
        -1.0500000715255737,
        -0.02494184300303459
      ],
      "type": "VEC3"
    },
    {
      "bufferView": 2,
      "byteOffset": 76692,
      "componentType": 5126,
      "count": 781,
      "max": [
        1.0,
        1.0,
        1.0
      ],
      "min": [
        -1.0,
        -1.0,
        -0.22510355710983276
      ],
      "type": "VEC3"
    },
    {
      "bufferView": 3,
      "byteOffset": 44880,
      "componentType": 5126,
      "count": 781,
      "max": [
        1.0,
        0.9999988079071045,
        0.999995768070221,
        1.0
      ],
      "min": [
        -0.007392647676169872,
        -0.999998927116394,
        -0.9999998807907104,
        1.0
      ],
      "type": "VEC4"
    },
    {
      "bufferView": 1,
      "byteOffset": 67320,
      "componentType": 5126,
      "count": 781,
      "max": [
        0.5501565933227539,
        0.6189757585525513
      ],
      "min": [
        0.3183062672615051,
        0.39294347167015076
      ],
      "type": "VEC2"
    },
    {
      "bufferView": 1,
      "byteOffset": 73568,
      "componentType": 5126,
      "count": 781,
      "max": [
        0.5501565933227539,
        0.6189757585525513
      ],
      "min": [
        0.3183062672615051,
        0.39294347167015076
      ],
      "type": "VEC2"
    },
    {
      "bufferView": 1,
      "byteOffset": 79816,
      "componentType": 5126,
      "count": 781,
      "max": [
        0.5501565933227539,
        0.6189757585525513
      ],
      "min": [
        0.3183062672615051,
        0.39294347167015076
      ],
      "type": "VEC2"
    },
    {
      "bufferView": 0,
      "byteOffset": 54192,
      "componentType": 5125,
      "count": 4236,
      "type": "SCALAR"
    },
    {
      "bufferView": 2,
      "byteOffset": 86064,
      "componentType": 5126,
      "count": 112,
      "max": [
        0.5832566618919373,
        0.5892544984817505,
        0.38953307271003723
      ],
      "min": [
        -0.583256721496582,
        -0.5892544984817505,
        -0.11566418409347534
      ],
      "type": "VEC3"
    },
    {
      "bufferView": 2,
      "byteOffset": 87408,
      "componentType": 5126,
      "count": 112,
      "max": [
        0.9898221492767334,
        1.0,
        0.9774433374404907
      ],
      "min": [
        -0.9898221492767334,
        -1.0,
        0.0
      ],
      "type": "VEC3"
    },
    {
      "bufferView": 3,
      "byteOffset": 57376,
      "componentType": 5126,
      "count": 112,
      "max": [
        1.0,
        0.9900426268577576,
        0.976753830909729,
        1.0
      ],
      "min": [
        -1.0,
        -0.9900426864624023,
        -0.976768970489502,
        1.0
      ],
      "type": "VEC4"
    },
    {
      "bufferView": 1,
      "byteOffset": 86064,
      "componentType": 5126,
      "count": 112,
      "max": [
        0.29065078496932983,
        0.602286159992218
      ],
      "min": [
        0.016527842730283737,
        0.41776910424232483
      ],
      "type": "VEC2"
    },
    {
      "bufferView": 1,
      "byteOffset": 86960,
      "componentType": 5126,
      "count": 112,
      "max": [
        0.29065078496932983,
        0.602286159992218
      ],
      "min": [
        0.016527842730283737,
        0.41776910424232483
      ],
      "type": "VEC2"
    },
    {
      "bufferView": 1,
      "byteOffset": 87856,
      "componentType": 5126,
      "count": 112,
      "max": [
        0.29065078496932983,
        0.602286159992218
      ],
      "min": [
        0.016527842730283737,
        0.41776910424232483
      ],
      "type": "VEC2"
    },
    {
      "bufferView": 0,
      "byteOffset": 71136,
      "componentType": 5125,
      "count": 456,
      "type": "SCALAR"
    },
    {
      "bufferView": 2,
      "byteOffset": 88752,
      "componentType": 5126,
      "count": 112,
      "max": [
        0.5832566618919373,
        0.5892544984817505,
        0.38953307271003723
      ],
      "min": [
        -0.583256721496582,
        -0.5892544984817505,
        -0.11566418409347534
      ],
      "type": "VEC3"
    },
    {
      "bufferView": 2,
      "byteOffset": 90096,
      "componentType": 5126,
      "count": 112,
      "max": [
        0.9898221492767334,
        1.0,
        0.9774433374404907
      ],
      "min": [
        -0.9898221492767334,
        -1.0,
        0.0
      ],
      "type": "VEC3"
    },
    {
      "bufferView": 3,
      "byteOffset": 59168,
      "componentType": 5126,
      "count": 112,
      "max": [
        1.0,
        0.9900426864624023,
        0.976753830909729,
        1.0
      ],
      "min": [
        -1.0,
        -0.9900428056716919,
        -0.9767699837684631,
        1.0
      ],
      "type": "VEC4"
    },
    {
      "bufferView": 1,
      "byteOffset": 88752,
      "componentType": 5126,
      "count": 112,
      "max": [
        0.29065078496932983,
        0.5655763149261475
      ],
      "min": [
        0.016527842730283737,
        0.4173482060432434
      ],
      "type": "VEC2"
    },
    {
      "bufferView": 1,
      "byteOffset": 89648,
      "componentType": 5126,
      "count": 112,
      "max": [
        0.29065078496932983,
        0.5655763149261475
      ],
      "min": [
        0.016527842730283737,
        0.4173482060432434
      ],
      "type": "VEC2"
    },
    {
      "bufferView": 1,
      "byteOffset": 90544,
      "componentType": 5126,
      "count": 112,
      "max": [
        0.29065078496932983,
        0.5655763149261475
      ],
      "min": [
        0.016527842730283737,
        0.4173482060432434
      ],
      "type": "VEC2"
    },
    {
      "bufferView": 0,
      "byteOffset": 72960,
      "componentType": 5125,
      "count": 456,
      "type": "SCALAR"
    },
    {
      "bufferView": 2,
      "byteOffset": 91440,
      "componentType": 5126,
      "count": 108,
      "max": [
        0.517135500907898,
        0.19045646488666534,
        0.30198776721954346
      ],
      "min": [
        -0.517135500907898,
        -0.19045646488666534,
        -0.12966658174991608
      ],
      "type": "VEC3"
    },
    {
      "bufferView": 2,
      "byteOffset": 92736,
      "componentType": 5126,
      "count": 108,
      "max": [
        0.9951868653297424,
        0.9951868653297424,
        0.9903850555419922
      ],
      "min": [
        -0.9951868653297424,
        -0.9951868653297424,
        0.0
      ],
      "type": "VEC3"
    },
    {
      "bufferView": 3,
      "byteOffset": 60960,
      "componentType": 5126,
      "count": 108,
      "max": [
        0.9225330948829651,
        0.007238410878926516,
        1.0,
        1.0
      ],
      "min": [
        -0.9099084734916687,
        -0.9997433423995972,
        -0.9998742938041687,
        1.0
      ],
      "type": "VEC4"
    },
    {
      "bufferView": 1,
      "byteOffset": 91440,
      "componentType": 5126,
      "count": 108,
      "max": [
        0.6577684879302979,
        0.49411824345588684
      ],
      "min": [
        0.5852404832839966,
        0.3926280438899994
      ],
      "type": "VEC2"
    },
    {
      "bufferView": 1,
      "byteOffset": 92304,
      "componentType": 5126,
      "count": 108,
      "max": [
        0.6577684879302979,
        0.49411824345588684
      ],
      "min": [
        0.5852404832839966,
        0.3926280438899994
      ],
      "type": "VEC2"
    },
    {
      "bufferView": 1,
      "byteOffset": 93168,
      "componentType": 5126,
      "count": 108,
      "max": [
        0.6577684879302979,
        0.49411824345588684
      ],
      "min": [
        0.5852404832839966,
        0.3926280438899994
      ],
      "type": "VEC2"
    },
    {
      "bufferView": 0,
      "byteOffset": 74784,
      "componentType": 5125,
      "count": 534,
      "type": "SCALAR"
    },
    {
      "bufferView": 2,
      "byteOffset": 94032,
      "componentType": 5126,
      "count": 108,
      "max": [
        0.517135500907898,
        0.19045646488666534,
        0.30198776721954346
      ],
      "min": [
        -0.517135500907898,
        -0.19045646488666534,
        -0.12966658174991608
      ],
      "type": "VEC3"
    },
    {
      "bufferView": 2,
      "byteOffset": 95328,
      "componentType": 5126,
      "count": 108,
      "max": [
        0.9951868653297424,
        0.9951868653297424,
        0.9903850555419922
      ],
      "min": [
        -0.9951868653297424,
        -0.9951868653297424,
        0.0
      ],
      "type": "VEC3"
    },
    {
      "bufferView": 3,
      "byteOffset": 62688,
      "componentType": 5126,
      "count": 108,
      "max": [
        0.9225326776504517,
        0.007236874662339687,
        0.9999999403953552,
        1.0
      ],
      "min": [
        -0.9099069237709045,
        -0.9997429251670837,
        -0.9998741745948792,
        1.0
      ],
      "type": "VEC4"
    },
    {
      "bufferView": 1,
      "byteOffset": 94032,
      "componentType": 5126,
      "count": 108,
      "max": [
        0.6581085324287415,
        0.614508867263794
      ],
      "min": [
        0.5855803489685059,
        0.5130187273025513
      ],
      "type": "VEC2"
    },
    {
      "bufferView": 1,
      "byteOffset": 94896,
      "componentType": 5126,
      "count": 108,
      "max": [
        0.6581085324287415,
        0.614508867263794
      ],
      "min": [
        0.5855803489685059,
        0.5130187273025513
      ],
      "type": "VEC2"
    },
    {
      "bufferView": 1,
      "byteOffset": 95760,
      "componentType": 5126,
      "count": 108,
      "max": [
        0.6581085324287415,
        0.614508867263794
      ],
      "min": [
        0.5855803489685059,
        0.5130187273025513
      ],
      "type": "VEC2"
    },
    {
      "bufferView": 0,
      "byteOffset": 76920,
      "componentType": 5125,
      "count": 534,
      "type": "SCALAR"
    }
  ],
  "asset": {
    "extras": {
      "author": "donnichols (https://sketchfab.com/donnichols)",
      "license": "CC-BY-4.0 (http://creativecommons.org/licenses/by/4.0/)",
      "source": "https://sketchfab.com/3d-models/nes-controller-free-5f85c2e259bd4ab5845d482ff4f1c039",
      "title": "NES Controller Free"
    },
    "generator": "Sketchfab-12.65.0",
    "version": "2.0"
  },
  "bufferViews": [
    {
      "buffer": 0,
      "byteLength": 79056,
      "name": "floatBufferViews",
      "target": 34963
    },
    {
      "buffer": 0,
      "byteLength": 96624,
      "byteOffset": 79056,
      "byteStride": 8,
      "name": "floatBufferViews",
      "target": 34962
    },
    {
      "buffer": 0,
      "byteLength": 96624,
      "byteOffset": 175680,
      "byteStride": 12,
      "name": "floatBufferViews",
      "target": 34962
    },
    {
      "buffer": 0,
      "byteLength": 64416,
      "byteOffset": 272304,
      "byteStride": 16,
      "name": "floatBufferViews",
      "target": 34962
    }
  ],
  "buffers": [
    {
      "byteLength": 336720,
      "uri": "scene.bin"
    }
  ],
  "images": [
    {
      "uri": "textures/Controller_baseColor.png"
    },
    {
      "uri": "textures/Controller_metallicRoughness.png"
    },
    {
      "uri": "textures/Controller_normal.png"
    }
  ],
  "materials": [
    {
      "doubleSided": true,
      "name": "Controller",
      "normalTexture": {
        "index": 2
      },
      "pbrMetallicRoughness": {
        "baseColorTexture": {
          "index": 0
        },
        "metallicFactor": 0.0,
        "metallicRoughnessTexture": {
          "index": 1
        }
      }
    }
  ],
  "meshes": [
    {
      "name": "Body_Controller_0",
      "primitives": [
        {
          "attributes": {
            "NORMAL": 1,
            "POSITION": 0,
            "TANGENT": 2,
            "TEXCOORD_0": 3,
            "TEXCOORD_1": 4,
            "TEXCOORD_2": 5
          },
          "indices": 6,
          "material": 0,
          "mode": 4
        }
      ]
    },
    {
      "name": "DPad_Controller_0",
      "primitives": [
        {
          "attributes": {
            "NORMAL": 8,
            "POSITION": 7,
            "TANGENT": 9,
            "TEXCOORD_0": 10,
            "TEXCOORD_1": 11,
            "TEXCOORD_2": 12
          },
          "indices": 13,
          "material": 0,
          "mode": 4
        }
      ]
    },
    {
      "name": "BtnA_Controller_0",
      "primitives": [
        {
          "attributes": {
            "NORMAL": 15,
            "POSITION": 14,
            "TANGENT": 16,
            "TEXCOORD_0": 17,
            "TEXCOORD_1": 18,
            "TEXCOORD_2": 19
          },
          "indices": 20,
          "material": 0,
          "mode": 4
        }
      ]
    },
    {
      "name": "BtnB_Controller_0",
      "primitives": [
        {
          "attributes": {
            "NORMAL": 22,
            "POSITION": 21,
            "TANGENT": 23,
            "TEXCOORD_0": 24,
            "TEXCOORD_1": 25,
            "TEXCOORD_2": 26
          },
          "indices": 27,
          "material": 0,
          "mode": 4
        }
      ]
    },
    {
      "name": "BtnSelect_Controller_0",
      "primitives": [
        {
          "attributes": {
            "NORMAL": 29,
            "POSITION": 28,
            "TANGENT": 30,
            "TEXCOORD_0": 31,
            "TEXCOORD_1": 32,
            "TEXCOORD_2": 33
          },
          "indices": 34,
          "material": 0,
          "mode": 4
        }
      ]
    },
    {
      "name": "BtnStart_Controller_0",
      "primitives": [
        {
          "attributes": {
            "NORMAL": 36,
            "POSITION": 35,
            "TANGENT": 37,
            "TEXCOORD_0": 38,
            "TEXCOORD_1": 39,
            "TEXCOORD_2": 40
          },
          "indices": 41,
          "material": 0,
          "mode": 4
        }
      ]
    }
  ],
  "nodes": [
    {
      "children": [
        1
      ],
      "matrix": [
        1.0,
        0.0,
        0.0,
        0.0,
        0.0,
        3.828568672208042e-16,
        -1.0,
        0.0,
        0.0,
        1.0,
        3.828568672208042e-16,
        0.0,
        0.0,
        9.365666464589138e-09,
        4.30636282189312e-09,
        1.0
      ],
      "name": "Sketchfab_model"
    },
    {
      "children": [
        2
      ],
      "matrix": [
        1.0,
        0.0,
        0.0,
        0.0,
        0.0,
        0.0,
        1.0,
        0.0,
        0.0,
        -1.0,
        0.0,
        0.0,
        0.0,
        0.0,
        0.0,
        1.0
      ],
      "name": "controller_wireless_1024.fbx"
    },
    {
      "children": [
        3,
        5,
        7,
        9,
        11,
        13
      ],
      "name": "RootNode"
    },
    {
      "children": [
        4
      ],
      "matrix": [
        1.0,
        0.0,
        0.0,
        0.0,
        0.0,
        -1.6292067939183141e-07,
        -0.9999999999999868,
        0.0,
        0.0,
        0.9999999999999868,
        -1.6292067939183141e-07,
        0.0,
        4.6566128730773926e-08,
        0.8531622886657715,
        -0.2597917914390564,
        1.0
      ],
      "name": "Body"
    },
    {
      "mesh": 0,
      "name": "Body_Controller_0"
    },
    {
      "children": [
        6
      ],
      "matrix": [
        1.0,
        0.0,
        0.0,
        0.0,
        -0.0,
        -1.6292067939183141e-07,
        -0.9999999999999868,
        0.0,
        0.0,
        0.9999999999999868,
        -1.6292067939183141e-07,
        0.0,
        -4.029445171356201,
        1.5971684455871582,
        0.33288273215293884,
        1.0
      ],
      "name": "DPad"
    },
    {
      "mesh": 1,
      "name": "DPad_Controller_0"
    },
    {
      "children": [
        8
      ],
      "matrix": [
        0.9553624987602234,
        0.0,
        0.0,
        0.0,
        0.0,
        -1.5564830736349328e-07,
        -0.9553624987602107,
        0.0,
        0.0,
        0.9999999999999868,
        -1.6292067939183141e-07,
        0.0,
        4.473240852355957,
        1.5488481521606445,
        0.8731257319450378,
        1.0
      ],
      "name": "BtnA"
    },
    {
      "mesh": 2,
      "name": "BtnA_Controller_0"
    },
    {
      "children": [
        10
      ],
      "matrix": [
        0.9553624987602234,
        0.0,
        0.0,
        0.0,
        0.0,
        -1.5564830736349328e-07,
        -0.9553624987602107,
        0.0,
        0.0,
        0.9999999999999868,
        -1.6292067939183141e-07,
        0.0,
        2.8506782054901123,
        1.5488481521606445,
        0.8731257319450378,
        1.0
      ],
      "name": "BtnB"
    },
    {
      "mesh": 3,
      "name": "BtnB_Controller_0"
    },
    {
      "children": [
        12
      ],
      "matrix": [
        1.0,
        0.0,
        0.0,
        0.0,
        -0.0,
        -1.6292067939183141e-07,
        -0.9999999999999868,
        0.0,
        0.0,
        0.9999999999999868,
        -1.6292067939183141e-07,
        0.0,
        -1.0556925535202026,
        1.617201566696167,
        0.9220571517944336,
        1.0
      ],
      "name": "BtnSelect"
    },
    {
      "mesh": 4,
      "name": "BtnSelect_Controller_0"
    },
    {
      "children": [
        14
      ],
      "matrix": [
        1.0,
        0.0,
        0.0,
        0.0,
        0.0,
        -1.6292067939183141e-07,
        -0.9999999999999868,
        0.0,
        0.0,
        0.9999999999999868,
        -1.6292067939183141e-07,
        0.0,
        0.4096886217594147,
        1.617201566696167,
        0.9220571517944336,
        1.0
      ],
      "name": "BtnStart"
    },
    {
      "mesh": 5,
      "name": "BtnStart_Controller_0"
    }
  ],
  "samplers": [
    {
      "magFilter": 9729,
      "minFilter": 9987,
      "wrapS": 10497,
      "wrapT": 10497
    }
  ],
  "scene": 0,
  "scenes": [
    {
      "name": "Sketchfab_Scene",
      "nodes": [
        0
      ]
    }
  ],
  "textures": [
    {
      "sampler": 0,
      "source": 0
    },
    {
      "sampler": 0,
      "source": 1
    },
    {
      "sampler": 0,
      "source": 2
    }
  ]
}
